<svg width="34" height="40" viewBox="0 0 34 40" fill="none" xmlns="http://www.w3.org/2000/svg">
<g clip-path="url(#clip0_1290_35015)">
<path d="M0.078125 22.2765L16.6159 29.8894L33.1533 22.2765L16.6159 21.5913L0.078125 22.2765Z" fill="#FCBF92"/>
<path d="M16.6669 0L0.0859375 8.26938V19.9375H19.968V1.65061L16.6669 0Z" fill="#9D5025"/>
<path d="M0.0859375 28.163L16.6766 39.9009L33.2175 28.163L16.6408 25.751L0.0859375 28.163Z" fill="#FCBF92"/>
<path d="M16.668 19.9375H25.4158V7.48684L22.8614 6.46509L16.668 8.27156V19.9375Z" fill="#9D5025"/>
<path d="M22.8594 19.9375H29.6209V11.8618L27.6868 11.2817L22.8594 12.1012V19.9375Z" fill="#9D5025"/>
<path d="M27.6875 10.6486V19.9375H33.1534L33.2173 10.6073L31.557 9.94397L27.6875 10.6486Z" fill="#9D5025"/>
<path d="M16.668 0V19.9375H19.9691V1.65061L16.668 0Z" fill="#F68534"/>
<path d="M25.4138 7.48684L22.8594 6.46497V19.9375H25.4138V7.48684Z" fill="#F68534"/>
<path d="M29.6216 11.8618L27.6875 11.2817V19.9375H29.6216V11.8618Z" fill="#F68534"/>
<path d="M31.5586 19.9375H33.2189V10.6073L31.5586 9.94397V19.9375Z" fill="#F68534"/>
<path d="M16.6172 23.9305V29.8894L33.1547 25.7672V22.2766L16.6172 23.9305Z" fill="#F68534"/>
<path d="M16.6172 34.0169V39.9008L33.2185 31.6005V28.163L16.6172 34.0169Z" fill="#F68534"/>
<path d="M0.0859375 31.6364L16.6162 39.9008V33.9738L0.0859375 28.163V31.6364Z" fill="#9D5025"/>
<path d="M0.078125 25.7672L16.6159 29.8896V23.9305L0.078125 22.2766V25.7672Z" fill="#9D5025"/>
</g>
<defs>
<clipPath id="clip0_1290_35015">
<rect width="33.1392" height="40" fill="white" transform="translate(0.078125)"/>
</clipPath>
</defs>
</svg>
