<svg width="41" height="41" viewBox="0 0 41 41" fill="none" xmlns="http://www.w3.org/2000/svg">
<path d="M40.7578 0.146851H0.757812V40.1469H40.7578V0.146851Z" fill="#F7DF1E"/>
<path d="M27.6307 31.3976C28.4365 32.7132 29.4847 33.6801 31.3387 33.6801C32.8961 33.6801 33.8911 32.9017 33.8911 31.8262C33.8911 30.5373 32.8688 30.0808 31.1546 29.3309L30.2149 28.9278C27.5025 27.7722 25.7006 26.3246 25.7006 23.2643C25.7006 20.4452 27.8485 18.2992 31.2053 18.2992C33.5952 18.2992 35.3133 19.1309 36.5514 21.3087L33.6244 23.1881C32.9799 22.0325 32.2847 21.5773 31.2053 21.5773C30.1044 21.5773 29.4066 22.2757 29.4066 23.1881C29.4066 24.3157 30.105 24.7722 31.7177 25.4706L32.6574 25.8732C35.8511 27.2427 37.6542 28.6389 37.6542 31.7779C37.6542 35.1621 34.9958 37.016 31.4257 37.016C27.9349 37.016 25.6796 35.3525 24.5761 33.1722L27.6307 31.3976ZM14.3527 31.7233C14.9431 32.7709 15.4803 33.6567 16.7717 33.6567C18.0066 33.6567 18.7857 33.1735 18.7857 31.2948V18.5138H22.5444V31.3455C22.5444 35.2376 20.2625 37.009 16.9317 37.009C13.9222 37.009 12.1793 35.4516 11.293 33.5757L14.3527 31.7233Z" fill="black"/>
</svg>
