<svg width="32" height="32" viewBox="0 0 32 32" fill="none" xmlns="http://www.w3.org/2000/svg">
<path d="M16.921 17.4929C15.5576 18.8563 15.5576 21.0695 16.921 22.4329C18.2844 23.7963 20.4976 23.7963 21.8609 22.4329C23.2243 21.0695 23.2243 18.8563 21.8609 17.4929C20.4976 16.1295 18.2844 16.1295 16.921 17.4929ZM20.619 21.1909C19.9466 21.8633 18.8447 21.8633 18.1723 21.1909C17.5 20.5185 17.5 19.4166 18.1723 18.7443C18.8447 18.0719 19.9466 18.0719 20.619 18.7443C21.2913 19.4166 21.2913 20.5185 20.619 21.1909ZM21.8049 0.319806L19.6664 2.45828C19.2462 2.8785 19.2462 3.56019 19.6664 3.98042L28.0242 12.3382C28.4444 12.7584 29.1261 12.7584 29.5464 12.3382L31.6848 10.1997C32.1051 9.7795 32.1051 9.0978 31.6848 8.67758L23.3271 0.319806C22.9068 -0.100417 22.2251 -0.100417 21.8049 0.319806ZM6.81695 27.653C7.19982 27.2701 7.19982 26.6538 6.81695 26.2709L5.72437 25.1783C5.3415 24.7955 4.72518 24.7955 4.34231 25.1783L2.10112 27.4195L1.48479 26.8032C1.14861 26.467 0.588313 26.467 0.252134 26.8032C-0.0840447 27.1394 -0.0840447 27.6997 0.252134 28.0359L3.95944 31.7432C4.29562 32.0793 4.85591 32.0793 5.19209 31.7432C5.52827 31.407 5.52827 30.8467 5.19209 30.5105L4.57576 29.8942L6.81695 27.653Z" fill="#F5A800"/>
<path d="M18.1369 6.45537L13.3837 11.2086C12.9634 11.6288 12.9634 12.3292 13.3837 12.7494L16.3159 15.6816C18.389 14.1875 21.3025 14.3742 23.1702 16.2419L25.5421 13.87C25.9624 13.4497 25.9624 12.7494 25.5421 12.3292L19.6777 6.46471C19.2481 6.03514 18.5571 6.03514 18.1369 6.45537ZM15.0832 16.9236L13.3463 15.1867C12.9448 14.7851 12.2724 14.7851 11.8709 15.1867L5.75429 21.3033C5.35274 21.7048 5.35274 22.3772 5.75429 22.7787L9.21879 26.2432C9.62034 26.6448 10.2927 26.6448 10.6942 26.2432L14.6257 22.3118C13.8039 20.5842 13.9533 18.5111 15.0832 16.9236Z" fill="#425CC7"/>
</svg>
