<svg width="41" height="41" viewBox="0 0 41 41" fill="none" xmlns="http://www.w3.org/2000/svg">
<path d="M20.4419 0.00582265C18.799 0.0134563 17.2301 0.153571 15.8496 0.397847C11.7829 1.1163 11.0445 2.6201 11.0445 5.39335V9.05598H20.6547V10.2769H11.0445H7.43792C4.64493 10.2769 2.19931 11.9556 1.43435 15.1492C0.551976 18.8097 0.512838 21.0939 1.43435 24.9162C2.11747 27.7613 3.74887 29.7885 6.54186 29.7885H9.84606V25.3978C9.84606 22.2258 12.5906 19.4278 15.8496 19.4278H25.4486C28.1206 19.4278 30.2537 17.2278 30.2537 14.5443V5.39335C30.2537 2.78894 28.0566 0.832513 25.4486 0.397847C23.7977 0.123036 22.0848 -0.00181113 20.4419 0.00582265ZM15.2448 2.9516C16.2375 2.9516 17.0481 3.77549 17.0481 4.78852C17.0481 5.79795 16.2375 6.61423 15.2448 6.61423C14.2486 6.61423 13.4415 5.79795 13.4415 4.78852C13.4415 3.77549 14.2486 2.9516 15.2448 2.9516Z" fill="url(#paint0_linear_1290_35053)"/>
<path d="M31.4506 10.277V14.5444C31.4506 17.8529 28.6456 20.6376 25.4471 20.6376H15.8481C13.2187 20.6376 11.043 22.888 11.043 25.5211V34.6721C11.043 37.2765 13.3077 38.8084 15.8481 39.5556C18.8901 40.4501 21.8073 40.6117 25.4471 39.5556C27.8665 38.8551 30.2521 37.4453 30.2521 34.6721V31.0094H20.6532V29.7886H30.2521H35.0572C37.8502 29.7886 38.891 27.8404 39.8623 24.9163C40.8657 21.9059 40.823 19.011 39.8623 15.1493C39.1721 12.3688 37.8538 10.277 35.0572 10.277H31.4506ZM26.0519 33.4512C27.0481 33.4512 27.8552 34.2675 27.8552 35.2769C27.8552 36.2899 27.0481 37.1138 26.0519 37.1138C25.0592 37.1138 24.2486 36.2899 24.2486 35.2769C24.2486 34.2675 25.0592 33.4512 26.0519 33.4512Z" fill="url(#paint1_linear_1290_35053)"/>
<defs>
<linearGradient id="paint0_linear_1290_35053" x1="0.757812" y1="0.00549306" x2="22.9179" y2="18.8889" gradientUnits="userSpaceOnUse">
<stop stop-color="#5A9FD4"/>
<stop offset="1" stop-color="#306998"/>
</linearGradient>
<linearGradient id="paint1_linear_1290_35053" x1="25.8209" y1="34.969" x2="17.8708" y2="23.8284" gradientUnits="userSpaceOnUse">
<stop stop-color="#FFD43B"/>
<stop offset="1" stop-color="#FFE873"/>
</linearGradient>
</defs>
</svg>
